<svg width="100%" height="100%" viewBox="0 0 179 40" fill="none" xmlns="http://www.w3.org/2000/svg">
<path d="M33.7255 28.6272L24.3137 35.686H3.92158L5.49021 31.7645L9.41178 28.6272H22.7451L25.0981 31.7645L31.3726 12.9409L35.2941 9.80367H39.2157L33.7255 28.6272ZM33.7255 8.23505L29.8039 11.3723H16.4706L14.1177 8.23505L7.84315 27.0586L3.92158 30.1958H1.14441e-05L5.49021 11.3723L14.902 4.31348H35.2941L33.7255 8.23505ZM18.8235 14.5096H27.451L22.7451 28.6272L20.3922 25.4899H11.7647L16.4706 11.3723L18.8235 14.5096Z" fill="white"/>
<path d="M59.1937 29C58.1229 29 57.1775 28.7658 56.3577 28.2973C55.5545 27.812 54.9187 27.1678 54.4502 26.3647C53.9984 25.5616 53.7726 24.6664 53.7726 23.6792V14.9451H49.0039V11.4314H62.7326V14.9451H57.989V24.0557C57.989 24.4405 58.1229 24.7752 58.3906 25.0596C58.6583 25.3441 58.9929 25.4863 59.3945 25.4863H60.7749V29H59.1937ZM69.6933 29.3012C68.3715 29.3012 67.1835 29.0084 66.1294 28.4227C65.0753 27.8371 64.2387 27.034 63.6196 26.0133C63.0173 24.9927 62.7161 23.8465 62.7161 22.5749C62.7161 21.2865 63.0173 20.1404 63.6196 19.1365C64.2387 18.1158 65.0753 17.3127 66.1294 16.7271C67.1835 16.1247 68.3715 15.8235 69.6933 15.8235C71.0152 15.8235 72.1948 16.1247 73.2322 16.7271C74.2863 17.3127 75.1145 18.1158 75.7169 19.1365C76.336 20.1404 76.6455 21.2865 76.6455 22.5749C76.6455 23.8465 76.336 24.9927 75.7169 26.0133C75.1145 27.034 74.2863 27.8371 73.2322 28.4227C72.178 29.0084 70.9984 29.3012 69.6933 29.3012ZM69.6933 25.9129C70.3124 25.9129 70.8478 25.7624 71.2996 25.4612C71.7514 25.16 72.1028 24.7584 72.3537 24.2565C72.6047 23.7545 72.7302 23.1856 72.7302 22.5498C72.7302 21.9307 72.6047 21.3702 72.3537 20.8682C72.1028 20.3663 71.7514 19.9647 71.2996 19.6635C70.8478 19.3624 70.3124 19.2118 69.6933 19.2118C69.0743 19.2118 68.5305 19.3624 68.062 19.6635C67.6102 19.9647 67.2588 20.3663 67.0078 20.8682C66.7569 21.3702 66.6314 21.9307 66.6314 22.5498C66.6314 23.1856 66.7569 23.7545 67.0078 24.2565C67.2588 24.7584 67.6102 25.16 68.062 25.4612C68.5305 25.7624 69.0743 25.9129 69.6933 25.9129ZM85.3306 29.3012C84.0088 29.3012 82.8208 29.0084 81.7667 28.4227C80.7126 27.8371 79.876 27.034 79.2569 26.0133C78.6545 24.9927 78.3533 23.8465 78.3533 22.5749C78.3533 21.2865 78.6545 20.1404 79.2569 19.1365C79.876 18.1158 80.7126 17.3127 81.7667 16.7271C82.8208 16.1247 84.0088 15.8235 85.3306 15.8235C86.6524 15.8235 87.832 16.1247 88.8694 16.7271C89.9235 17.3127 90.7518 18.1158 91.3541 19.1365C91.9732 20.1404 92.2828 21.2865 92.2828 22.5749C92.2828 23.8465 91.9732 24.9927 91.3541 26.0133C90.7518 27.034 89.9235 27.8371 88.8694 28.4227C87.8153 29.0084 86.6357 29.3012 85.3306 29.3012ZM85.3306 25.9129C85.9497 25.9129 86.4851 25.7624 86.9369 25.4612C87.3886 25.16 87.74 24.7584 87.991 24.2565C88.242 23.7545 88.3675 23.1856 88.3675 22.5498C88.3675 21.9307 88.242 21.3702 87.991 20.8682C87.74 20.3663 87.3886 19.9647 86.9369 19.6635C86.4851 19.3624 85.9497 19.2118 85.3306 19.2118C84.7115 19.2118 84.1677 19.3624 83.6992 19.6635C83.2475 19.9647 82.8961 20.3663 82.6451 20.8682C82.3941 21.3702 82.2686 21.9307 82.2686 22.5498C82.2686 23.1856 82.3941 23.7545 82.6451 24.2565C82.8961 24.7584 83.2475 25.16 83.6992 25.4612C84.1677 25.7624 84.7115 25.9129 85.3306 25.9129ZM94.5929 29V10.6784H98.4831V29H94.5929ZM108.159 29.3012C106.77 29.3012 105.557 29.0167 104.52 28.4478C103.483 27.879 102.679 27.0675 102.111 26.0133C101.542 24.9592 101.257 23.7294 101.257 22.3239V10.6784H105.147V17.5302H105.223C105.474 17.1788 105.783 16.8776 106.151 16.6267C106.536 16.359 106.955 16.1582 107.406 16.0243C107.875 15.8905 108.368 15.8235 108.887 15.8235C110.109 15.8235 111.179 16.0996 112.1 16.6518C113.02 17.2039 113.739 17.9652 114.258 18.9357C114.793 19.9061 115.061 21.0439 115.061 22.349C115.061 23.3529 114.902 24.2816 114.584 25.1349C114.266 25.9882 113.806 26.7328 113.204 27.3686C112.618 27.9877 111.899 28.4646 111.045 28.7992C110.209 29.1339 109.247 29.3012 108.159 29.3012ZM108.159 25.938C108.762 25.938 109.28 25.7958 109.715 25.5114C110.15 25.2102 110.485 24.8086 110.719 24.3067C110.97 23.788 111.096 23.2107 111.096 22.5749C111.096 21.9391 110.97 21.3702 110.719 20.8682C110.485 20.3663 110.15 19.9731 109.715 19.6886C109.28 19.3875 108.762 19.2369 108.159 19.2369C107.557 19.2369 107.03 19.3875 106.578 19.6886C106.143 19.9731 105.808 20.3663 105.574 20.8682C105.34 21.3702 105.223 21.9391 105.223 22.5749C105.223 23.2107 105.34 23.788 105.574 24.3067C105.808 24.8086 106.143 25.2102 106.578 25.5114C107.03 25.7958 107.557 25.938 108.159 25.938ZM122.533 29.3012C121.395 29.3012 120.391 29.0084 119.521 28.4227C118.651 27.8371 117.973 27.0507 117.488 26.0635C117.003 25.0596 116.76 23.9302 116.76 22.6753C116.76 21.3702 117.045 20.2073 117.614 19.1867C118.182 18.1493 118.986 17.3294 120.023 16.7271C121.077 16.1247 122.315 15.8235 123.737 15.8235C125.176 15.8235 126.398 16.1247 127.402 16.7271C128.422 17.3127 129.2 18.1242 129.736 19.1616C130.288 20.1822 130.564 21.3284 130.564 22.6V29H126.749V26.942H126.649C126.415 27.3937 126.113 27.8037 125.745 28.1718C125.377 28.5231 124.925 28.7992 124.39 29C123.871 29.2008 123.252 29.3012 122.533 29.3012ZM123.687 25.938C124.273 25.938 124.783 25.7958 125.218 25.5114C125.67 25.2102 126.013 24.8003 126.247 24.2816C126.482 23.7629 126.599 23.1856 126.599 22.5498C126.599 21.9307 126.482 21.3702 126.247 20.8682C126.013 20.3663 125.67 19.9731 125.218 19.6886C124.783 19.3875 124.273 19.2369 123.687 19.2369C123.085 19.2369 122.558 19.3875 122.106 19.6886C121.654 19.9731 121.311 20.3663 121.077 20.8682C120.843 21.3702 120.726 21.9307 120.726 22.5498C120.726 23.1856 120.843 23.7629 121.077 24.2816C121.311 24.8003 121.654 25.2102 122.106 25.5114C122.558 25.7958 123.085 25.938 123.687 25.938ZM133.341 29V19.9145C133.341 18.7433 133.675 17.823 134.345 17.1537C135.014 16.4844 135.942 16.1498 137.13 16.1498H140.87V19.3122H138.084C137.85 19.3122 137.649 19.3958 137.482 19.5631C137.314 19.7137 137.231 19.9145 137.231 20.1655V29H133.341ZM147.034 29L152.732 13.4643C153.016 12.6946 153.485 12.1174 154.137 11.7325C154.79 11.331 155.526 11.1302 156.346 11.1302C157.166 11.1302 157.902 11.3226 158.554 11.7075C159.207 12.0756 159.675 12.6528 159.96 13.4392L165.682 29H161.139L160.035 25.6118H152.581L151.426 29H147.034ZM153.66 22.1231H158.956L156.722 15.1208C156.689 15.0204 156.639 14.9535 156.572 14.92C156.521 14.8698 156.454 14.8447 156.371 14.8447C156.287 14.8447 156.212 14.8698 156.145 14.92C156.095 14.9702 156.061 15.0371 156.045 15.1208L153.66 22.1231ZM166.816 29V25.4863H169.853V14.9451H166.816V11.4314H177.081V14.9451H174.044V25.4863H177.081V29H166.816Z" fill="white"/>
</svg>
